<?xml version="1.0" encoding="UTF-8" standalone="no"?>
<!DOCTYPE svg PUBLIC "-//W3C//DTD SVG 1.1//EN"
 "http://www.w3.org/Graphics/SVG/1.1/DTD/svg11.dtd">
<!-- Generated by graphviz version 5.0.1 (20220820.1526)
 -->
<!-- Title: G Pages: 1 -->
<svg width="612pt" height="66pt"
 viewBox="0.00 0.00 612.20 66.20" xmlns="http://www.w3.org/2000/svg" xmlns:xlink="http://www.w3.org/1999/xlink">
<g id="graph0" class="graph" transform="scale(1 1) rotate(0) translate(21.6 44.6)">
<title>G</title>
<polygon fill="#111111" stroke="none" points="-21.6,21.6 -21.6,-44.6 590.6,-44.6 590.6,21.6 -21.6,21.6"/>
<!-- models/discord&#45;guild.js -->
<g id="node1" class="node">
<title>models/discord&#45;guild.js</title>
<path fill="none" stroke="#ff6c60" d="M156.33,-23C156.33,-23 7.67,-23 7.67,-23 3.83,-23 0,-19.17 0,-15.33 0,-15.33 0,-7.67 0,-7.67 0,-3.83 3.83,0 7.67,0 7.67,0 156.33,0 156.33,0 160.17,0 164,-3.83 164,-7.67 164,-7.67 164,-15.33 164,-15.33 164,-19.17 160.17,-23 156.33,-23"/>
<text text-anchor="middle" x="82" y="-7.8" font-family="Arial" font-size="14.00" fill="#ff6c60">models/discord&#45;guild.js</text>
</g>
<!-- persistence/repository.js -->
<g id="node2" class="node">
<title>persistence/repository.js</title>
<path fill="none" stroke="#ff6c60" d="M364.33,-23C364.33,-23 207.67,-23 207.67,-23 203.83,-23 200,-19.17 200,-15.33 200,-15.33 200,-7.67 200,-7.67 200,-3.83 203.83,0 207.67,0 207.67,0 364.33,0 364.33,0 368.17,0 372,-3.83 372,-7.67 372,-7.67 372,-15.33 372,-15.33 372,-19.17 368.17,-23 364.33,-23"/>
<text text-anchor="middle" x="286" y="-7.8" font-family="Arial" font-size="14.00" fill="#ff6c60">persistence/repository.js</text>
</g>
<!-- models/discord&#45;guild.js&#45;&gt;persistence/repository.js -->
<g id="edge1" class="edge">
<title>models/discord&#45;guild.js&#45;&gt;persistence/repository.js</title>
<path fill="none" stroke="#757575" d="M164.29,-4.87C172.72,-4.77 181.34,-4.73 189.91,-4.76"/>
<polygon fill="#757575" stroke="#757575" points="189.9,-8.26 199.92,-4.83 189.94,-1.26 189.9,-8.26"/>
</g>
<!-- persistence/repository.js&#45;&gt;models/discord&#45;guild.js -->
<g id="edge3" class="edge">
<title>persistence/repository.js&#45;&gt;models/discord&#45;guild.js</title>
<path fill="none" stroke="#757575" d="M199.92,-18.17C191.53,-18.25 182.99,-18.27 174.54,-18.22"/>
<polygon fill="#757575" stroke="#757575" points="174.32,-14.72 164.29,-18.13 174.26,-21.72 174.32,-14.72"/>
</g>
<!-- models/discord&#45;user.js -->
<g id="node3" class="node">
<title>models/discord&#45;user.js</title>
<path fill="none" stroke="#ff6c60" d="M561.33,-23C561.33,-23 415.67,-23 415.67,-23 411.83,-23 408,-19.17 408,-15.33 408,-15.33 408,-7.67 408,-7.67 408,-3.83 411.83,0 415.67,0 415.67,0 561.33,0 561.33,0 565.17,0 569,-3.83 569,-7.67 569,-7.67 569,-15.33 569,-15.33 569,-19.17 565.17,-23 561.33,-23"/>
<text text-anchor="middle" x="488.5" y="-7.8" font-family="Arial" font-size="14.00" fill="#ff6c60">models/discord&#45;user.js</text>
</g>
<!-- persistence/repository.js&#45;&gt;models/discord&#45;user.js -->
<g id="edge4" class="edge">
<title>persistence/repository.js&#45;&gt;models/discord&#45;user.js</title>
<path fill="none" stroke="#757575" d="M372.03,-4.82C380.45,-4.74 389.02,-4.73 397.49,-4.78"/>
<polygon fill="#757575" stroke="#757575" points="397.73,-8.28 407.76,-4.88 397.79,-1.28 397.73,-8.28"/>
</g>
<!-- models/discord&#45;user.js&#45;&gt;persistence/repository.js -->
<g id="edge2" class="edge">
<title>models/discord&#45;user.js&#45;&gt;persistence/repository.js</title>
<path fill="none" stroke="#757575" d="M407.76,-18.12C399.32,-18.23 390.67,-18.27 382.08,-18.24"/>
<polygon fill="#757575" stroke="#757575" points="382.05,-14.74 372.03,-18.18 382.01,-21.74 382.05,-14.74"/>
</g>
</g>
</svg>
