<?xml version="1.0" encoding="UTF-8" standalone="no"?>
<!DOCTYPE svg PUBLIC "-//W3C//DTD SVG 1.1//EN"
 "http://www.w3.org/Graphics/SVG/1.1/DTD/svg11.dtd">
<!-- Generated by graphviz version 5.0.1 (20220820.1526)
 -->
<!-- Title: G Pages: 1 -->
<svg width="828pt" height="106pt"
 viewBox="0.00 0.00 828.20 106.20" xmlns="http://www.w3.org/2000/svg" xmlns:xlink="http://www.w3.org/1999/xlink">
<g id="graph0" class="graph" transform="scale(1 1) rotate(0) translate(21.6 84.6)">
<title>G</title>
<polygon fill="#111111" stroke="none" points="-21.6,21.6 -21.6,-84.6 806.6,-84.6 806.6,21.6 -21.6,21.6"/>
<!-- models/discord&#45;guild.js -->
<g id="node1" class="node">
<title>models/discord&#45;guild.js</title>
<path fill="none" stroke="#ff6c60" d="M156.33,-23C156.33,-23 7.67,-23 7.67,-23 3.83,-23 0,-19.17 0,-15.33 0,-15.33 0,-7.67 0,-7.67 0,-3.83 3.83,0 7.67,0 7.67,0 156.33,0 156.33,0 160.17,0 164,-3.83 164,-7.67 164,-7.67 164,-15.33 164,-15.33 164,-19.17 160.17,-23 156.33,-23"/>
<text text-anchor="middle" x="82" y="-7.8" font-family="Arial" font-size="14.00" fill="#ff6c60">models/discord&#45;guild.js</text>
</g>
<!-- persistence/repository.js -->
<g id="node2" class="node">
<title>persistence/repository.js</title>
<path fill="none" stroke="#ff6c60" d="M364.33,-23C364.33,-23 207.67,-23 207.67,-23 203.83,-23 200,-19.17 200,-15.33 200,-15.33 200,-7.67 200,-7.67 200,-3.83 203.83,0 207.67,0 207.67,0 364.33,0 364.33,0 368.17,0 372,-3.83 372,-7.67 372,-7.67 372,-15.33 372,-15.33 372,-19.17 368.17,-23 364.33,-23"/>
<text text-anchor="middle" x="286" y="-7.8" font-family="Arial" font-size="14.00" fill="#ff6c60">persistence/repository.js</text>
</g>
<!-- models/discord&#45;guild.js&#45;&gt;persistence/repository.js -->
<g id="edge1" class="edge">
<title>models/discord&#45;guild.js&#45;&gt;persistence/repository.js</title>
<path fill="none" stroke="#757575" d="M164.29,-4.87C172.72,-4.77 181.34,-4.73 189.91,-4.76"/>
<polygon fill="#757575" stroke="#757575" points="189.9,-8.26 199.92,-4.83 189.94,-1.26 189.9,-8.26"/>
</g>
<!-- persistence/repository.js&#45;&gt;models/discord&#45;guild.js -->
<g id="edge5" class="edge">
<title>persistence/repository.js&#45;&gt;models/discord&#45;guild.js</title>
<path fill="none" stroke="#757575" d="M199.92,-18.17C191.53,-18.25 182.99,-18.27 174.54,-18.22"/>
<polygon fill="#757575" stroke="#757575" points="174.32,-14.72 164.29,-18.13 174.26,-21.72 174.32,-14.72"/>
</g>
<!-- persistence/dbManager.js -->
<g id="node4" class="node">
<title>persistence/dbManager.js</title>
<path fill="none" stroke="#ff6c60" d="M580.33,-63C580.33,-63 415.67,-63 415.67,-63 411.83,-63 408,-59.17 408,-55.33 408,-55.33 408,-47.67 408,-47.67 408,-43.83 411.83,-40 415.67,-40 415.67,-40 580.33,-40 580.33,-40 584.17,-40 588,-43.83 588,-47.67 588,-47.67 588,-55.33 588,-55.33 588,-59.17 584.17,-63 580.33,-63"/>
<text text-anchor="middle" x="498" y="-47.8" font-family="Arial" font-size="14.00" fill="#ff6c60">persistence/dbManager.js</text>
</g>
<!-- persistence/repository.js&#45;&gt;persistence/dbManager.js -->
<g id="edge6" class="edge">
<title>persistence/repository.js&#45;&gt;persistence/dbManager.js</title>
<path fill="none" stroke="#757575" d="M347.46,-23.02C372.17,-27.72 400.92,-33.2 426.57,-38.08"/>
<polygon fill="#757575" stroke="#757575" points="426.13,-41.56 436.6,-40 427.44,-34.69 426.13,-41.56"/>
</g>
<!-- models/discord&#45;user.js -->
<g id="node3" class="node">
<title>models/discord&#45;user.js</title>
<path fill="none" stroke="#ff6c60" d="M777.33,-43C777.33,-43 631.67,-43 631.67,-43 627.83,-43 624,-39.17 624,-35.33 624,-35.33 624,-27.67 624,-27.67 624,-23.83 627.83,-20 631.67,-20 631.67,-20 777.33,-20 777.33,-20 781.17,-20 785,-23.83 785,-27.67 785,-27.67 785,-35.33 785,-35.33 785,-39.17 781.17,-43 777.33,-43"/>
<text text-anchor="middle" x="704.5" y="-27.8" font-family="Arial" font-size="14.00" fill="#ff6c60">models/discord&#45;user.js</text>
</g>
<!-- models/discord&#45;user.js&#45;&gt;persistence/repository.js -->
<g id="edge2" class="edge">
<title>models/discord&#45;user.js&#45;&gt;persistence/repository.js</title>
<path fill="none" stroke="#757575" d="M623.87,-27.68C554.99,-24.37 455.25,-19.58 382.17,-16.07"/>
<polygon fill="#757575" stroke="#757575" points="382.19,-12.57 372.04,-15.58 381.86,-19.56 382.19,-12.57"/>
</g>
<!-- persistence/dbManager.js&#45;&gt;models/discord&#45;guild.js -->
<g id="edge3" class="edge">
<title>persistence/dbManager.js&#45;&gt;models/discord&#45;guild.js</title>
<path fill="none" stroke="#757575" d="M407.73,-48.44C348.63,-45.76 269.5,-40.93 200,-32.5 183.63,-30.51 166.08,-27.72 149.68,-24.82"/>
<polygon fill="#757575" stroke="#757575" points="150.1,-21.34 139.64,-23 148.85,-28.23 150.1,-21.34"/>
</g>
<!-- persistence/dbManager.js&#45;&gt;models/discord&#45;user.js -->
<g id="edge4" class="edge">
<title>persistence/dbManager.js&#45;&gt;models/discord&#45;user.js</title>
<path fill="none" stroke="#757575" d="M588.1,-42.79C596.52,-41.96 605.06,-41.13 613.48,-40.3"/>
<polygon fill="#757575" stroke="#757575" points="614.08,-43.76 623.69,-39.31 613.4,-36.8 614.08,-43.76"/>
</g>
</g>
</svg>
